<svg width="131" height="107" viewBox="0 0 131 107" fill="none" xmlns="http://www.w3.org/2000/svg">
  <path d="M3.38513 3.78949H127.439V98.6316H3.38513V3.78949Z" stroke="black" stroke-width="6"/>
  <path d="M17.2085 35.636C14.8672 35.636 12.754 35.1711 10.869 34.2412C8.98379 33.3114 7.35713 32.0562 5.98885 30.4755C4.62061 28.8638 3.55642 27.0661 2.79629 25.0825C2.06656 23.0678 1.70169 21.0068 1.70169 18.8991C1.70169 16.6985 2.09696 14.6064 2.8875 12.6228C3.67804 10.6082 4.77263 8.82604 6.17132 7.27633C7.56994 5.69563 9.21183 4.45586 11.097 3.55703C13.0125 2.6272 15.08 2.16229 17.2997 2.16229C19.6105 2.16229 21.7085 2.6427 23.5936 3.60352C25.5092 4.56434 27.1358 5.85059 28.4737 7.46229C29.8419 9.07399 30.8909 10.8717 31.6206 12.8553C32.3808 14.8389 32.7609 16.869 32.7609 18.9456C32.7609 21.1462 32.3655 23.2538 31.575 25.2684C30.8148 27.252 29.7355 29.0342 28.3369 30.6149C26.9382 32.1647 25.2811 33.3889 23.3656 34.2877C21.4804 35.1866 19.4281 35.636 17.2085 35.636ZM6.90105 18.8991C6.90105 20.4489 7.14424 21.952 7.63078 23.4088C8.11724 24.8655 8.80136 26.1673 9.68315 27.314C10.5953 28.4298 11.6899 29.3132 12.9669 29.964C14.244 30.6149 15.673 30.9404 17.2541 30.9404C18.896 30.9404 20.3554 30.5994 21.6325 29.9176C22.9095 29.2357 23.9736 28.3213 24.825 27.1746C25.7067 25.9968 26.3757 24.695 26.8318 23.2693C27.2879 21.8126 27.5159 20.3559 27.5159 18.8991C27.5159 17.3494 27.2726 15.8617 26.7862 14.436C26.3301 12.9792 25.646 11.693 24.7338 10.5772C23.8217 9.43041 22.7271 8.53159 21.45 7.88071C20.2034 7.22984 18.8048 6.9044 17.2541 6.9044C15.6122 6.9044 14.1527 7.24534 12.8757 7.9272C11.5987 8.60907 10.5192 9.52341 9.63754 10.6702C8.75575 11.8169 8.07163 13.1033 7.58518 14.529C7.12909 15.9547 6.90105 17.4114 6.90105 18.8991ZM79.2333 2.39475V35.4035H74.0796V20.8518H57.7519V35.4035H52.6438V2.39475H57.7519V16.2026H74.0796V2.39475H79.2333ZM114.587 35.636C112.246 35.636 110.133 35.1711 108.247 34.2412C106.363 33.3114 104.735 32.0562 103.367 30.4755C101.999 28.8638 100.935 27.0661 100.175 25.0825C99.4449 23.0678 99.0801 21.0068 99.0801 18.8991C99.0801 16.6985 99.4759 14.6064 100.266 12.6228C101.057 10.6082 102.151 8.82604 103.55 7.27633C104.949 5.69563 106.591 4.45586 108.475 3.55703C110.391 2.6272 112.459 2.16229 114.678 2.16229C116.989 2.16229 119.087 2.6427 120.972 3.60352C122.887 4.56434 124.515 5.85059 125.852 7.46229C127.22 9.07399 128.269 10.8717 128.999 12.8553C129.76 14.8389 130.139 16.869 130.139 18.9456C130.139 21.1462 129.744 23.2538 128.953 25.2684C128.194 27.252 127.114 29.0342 125.715 30.6149C124.317 32.1647 122.659 33.3889 120.744 34.2877C118.859 35.1866 116.807 35.636 114.587 35.636ZM104.279 18.8991C104.279 20.4489 104.523 21.952 105.009 23.4088C105.496 24.8655 106.18 26.1673 107.061 27.314C107.974 28.4298 109.068 29.3132 110.345 29.964C111.622 30.6149 113.052 30.9404 114.632 30.9404C116.274 30.9404 117.734 30.5994 119.011 29.9176C120.288 29.2357 121.352 28.3213 122.203 27.1746C123.085 25.9968 123.754 24.695 124.21 23.2693C124.666 21.8126 124.894 20.3559 124.894 18.8991C124.894 17.3494 124.652 15.8617 124.165 14.436C123.708 12.9792 123.024 11.693 122.112 10.5772C121.2 9.43041 120.105 8.53159 118.828 7.88071C117.582 7.22984 116.183 6.9044 114.632 6.9044C112.991 6.9044 111.531 7.24534 110.254 7.9272C108.977 8.60907 107.898 9.52341 107.016 10.6702C106.135 11.8169 105.451 13.1033 104.964 14.529C104.507 15.9547 104.279 17.4114 104.279 18.8991ZM27.7535 39.5412H16.99V67.9474H11.8363V39.5412H1.02722V34.9386H27.7535V39.5412ZM59.324 63.3447V67.9474H37.1129V34.9386H58.9135V39.5412H42.221V48.9325H56.6787V53.2561H42.221V63.3447H59.324ZM69.656 67.9474V34.9386H92.4149V39.4947H74.7641V48.7465H84.2506C87.8385 48.7465 90.5294 49.6143 92.3237 51.35C94.117 53.0547 95.0146 55.3173 95.0146 58.1377C95.0146 60.0283 94.6187 61.7176 93.8287 63.2053C93.068 64.662 91.9132 65.8243 90.3625 66.6921C88.8419 67.529 86.9111 67.9474 84.5698 67.9474H69.656ZM74.7641 63.3912H83.8857C85.2844 63.3912 86.4094 63.1278 87.2607 62.6009C88.1425 62.074 88.7662 61.4076 89.1311 60.6018C89.5261 59.7649 89.724 58.8971 89.724 57.9983C89.724 57.0994 89.5562 56.2626 89.2223 55.4877C88.8876 54.7129 88.2792 54.093 87.3975 53.6281C86.5462 53.1322 85.3452 52.8842 83.7945 52.8842H74.7641V63.3912ZM127.036 63.3447V67.9474H104.825V34.9386H126.626V39.5412H109.933V48.9325H124.391V53.2561H109.933V63.3447H127.036ZM27.6399 67.4825V100.491H22.4862V85.9395H6.15846V100.491H1.05038V67.4825H6.15846V81.2904H22.4862V67.4825H27.6399ZM45.2065 67.4825H50.0409L62.6288 100.491H57.247L53.8264 91.5184H41.3298L37.9548 100.491H32.5274L45.2065 67.4825ZM52.823 87.6597L47.6237 73.2009L42.242 87.6597H52.823ZM62.4375 106.814V95.8886H63.9882C64.8395 95.8886 65.5692 95.5474 66.1774 94.8658C66.8159 94.1842 67.3479 93.0991 67.7737 91.6114C68.2297 90.1237 68.5794 88.1711 68.8226 85.7535C69.0963 83.305 69.2939 80.314 69.4155 76.7807L69.6436 67.4825H90.4866V95.8886H94.5913V106.814H90.0761V100.491H66.9527V106.814H62.4375ZM70.4645 95.8886H85.3328V72.0851H74.3868L74.25 77.4781C74.1588 81.0424 73.9763 84.0643 73.7027 86.5439C73.4291 88.9924 73.0337 90.9761 72.5169 92.4947C72 94.0132 71.3158 95.1447 70.4645 95.8886ZM114.406 100.724C112.065 100.724 109.952 100.259 108.067 99.329C106.181 98.3991 104.555 97.1439 103.187 95.5632C101.818 93.9515 100.754 92.1538 99.994 90.1702C99.2643 88.1555 98.8995 86.0945 98.8995 83.9869C98.8995 81.7862 99.2944 79.6941 100.085 77.7105C100.876 75.6959 101.971 73.9138 103.369 72.364C104.767 70.7833 106.409 69.5436 108.295 68.6447C110.21 67.7149 112.278 67.25 114.497 67.25C116.808 67.25 118.906 67.7305 120.791 68.6912C122.707 69.652 124.333 70.9383 125.671 72.55C127.04 74.1617 128.089 75.9594 128.818 77.943C129.578 79.9266 129.959 81.9568 129.959 84.0333C129.959 86.234 129.564 88.3415 128.773 90.3561C128.013 92.3397 126.933 94.1219 125.535 95.7026C124.136 97.2527 122.479 98.4763 120.563 99.3755C118.678 100.275 116.626 100.724 114.406 100.724ZM104.099 83.9869C104.099 85.5366 104.342 87.0397 104.829 88.4965C105.315 89.9533 105.999 91.255 106.881 92.4018C107.793 93.5176 108.888 94.4009 110.165 95.0518C111.442 95.7026 112.871 96.0281 114.452 96.0281C116.094 96.0281 117.553 95.6868 118.83 95.0053C120.107 94.3237 121.172 93.409 122.023 92.2623C122.905 91.0845 123.573 89.7827 124.03 88.357C124.486 86.9003 124.714 85.4436 124.714 83.9869C124.714 82.4371 124.47 80.9494 123.984 79.5237C123.528 78.0669 122.844 76.7807 121.932 75.6649C121.019 74.5182 119.925 73.6193 118.648 72.9684C117.401 72.3176 116.002 71.9921 114.452 71.9921C112.81 71.9921 111.35 72.3331 110.073 73.0149C108.796 73.6968 107.717 74.6112 106.835 75.7579C105.953 76.9047 105.269 78.191 104.783 79.6167C104.327 81.0424 104.099 82.4991 104.099 83.9869Z" fill="black"/>
</svg>
